<svg width="121" height="125" viewBox="0 0 121 125" fill="none" xmlns="http://www.w3.org/2000/svg">
<path d="M0 62.5765C0 50.5403 2.68498 39.7895 8.05493 30.3242C13.5416 20.742 20.9545 13.3216 30.2936 8.06307C39.7493 2.68769 50.3141 0 61.988 0C75.6463 0 87.612 3.50568 97.8849 10.5171C108.158 17.5284 115.337 27.2275 119.423 39.6142H91.2309C88.4291 33.7714 84.4601 29.3893 79.3236 26.4679C74.3038 23.5465 68.4669 22.0858 61.8129 22.0858C54.6918 22.0858 48.3296 23.7802 42.7262 27.1691C37.2395 30.441 32.9202 35.1153 29.7682 41.1918C26.733 47.2683 25.2154 54.3965 25.2154 62.5765C25.2154 70.6396 26.733 77.7678 29.7682 83.9612C32.9202 90.0377 37.2395 94.7704 42.7262 98.1592C48.3296 101.431 54.6918 103.067 61.8129 103.067C68.4669 103.067 74.3038 101.606 79.3236 98.685C84.4601 95.6468 88.4291 91.2062 91.2309 85.3634H119.423C115.337 97.867 108.158 107.625 97.8849 114.636C87.7287 121.53 75.7631 124.978 61.988 124.978C50.3141 124.978 39.7493 122.348 30.2936 117.09C20.9545 111.715 13.5416 104.294 8.05493 94.8288C2.68498 85.3634 0 74.6127 0 62.5765Z" fill="white"/>
<path d="M113.608 78.4596L106.676 67.6704L100.386 78.4596H93.1316L103.232 62.2987L92.9939 46.4132H100.386L107.318 57.1566L113.562 46.4132H120.816L110.762 62.5282L121 78.4596H113.608Z" fill="white"/>
<path d="M57.6152 62.3905C57.6152 59.2379 58.3192 56.422 59.7272 53.9427C61.1657 51.4329 63.1093 49.4893 65.558 48.1119C68.0372 46.704 70.8072 46 73.868 46C77.4491 46 80.5865 46.9182 83.2799 48.7547C85.9734 50.5912 87.8558 53.1316 88.9271 56.3761H81.5353C80.8007 54.8457 79.76 53.6979 78.4133 52.9327C77.0972 52.1675 75.5668 51.7849 73.8221 51.7849C71.955 51.7849 70.2869 52.2287 68.8177 53.1163C67.3791 53.9734 66.2467 55.1977 65.4202 56.7893C64.6244 58.3809 64.2265 60.248 64.2265 62.3905C64.2265 64.5025 64.6244 66.3695 65.4202 67.9918C66.2467 69.5834 67.3791 70.823 68.8177 71.7106C70.2869 72.5676 71.955 72.9962 73.8221 72.9962C75.5668 72.9962 77.0972 72.6135 78.4133 71.8484C79.76 71.0525 80.8007 69.8895 81.5353 68.3591H88.9271C87.8558 71.6341 85.9734 74.1899 83.2799 76.0263C80.6171 77.8322 77.4798 78.7351 73.868 78.7351C70.8072 78.7351 68.0372 78.0464 65.558 76.6691C63.1093 75.2611 61.1657 73.3175 59.7272 70.8383C58.3192 68.3591 57.6152 65.5431 57.6152 62.3905Z" fill="white"/>
</svg>
