<svg width="25" height="26" viewBox="0 0 25 26" fill="none" xmlns="http://www.w3.org/2000/svg">
<path d="M12.4997 5.29467C14.8281 5.29467 16.3988 6.30044 17.2944 7.14089L20.7939 3.724C18.6446 1.72622 15.8477 0.5 12.4997 0.5C7.64992 0.5 3.46147 3.28311 1.42236 7.33378L5.4317 10.4476C6.43747 7.45778 9.22058 5.29467 12.4997 5.29467Z" fill="#EA4335"/>
<path d="M24.404 13.1756C24.404 12.156 24.3213 11.412 24.1422 10.6404H12.5V15.2422H19.3338C19.196 16.3858 18.452 18.108 16.7987 19.2653L20.7116 22.2965C23.0538 20.1333 24.404 16.9507 24.404 13.1756Z" fill="#4285F4"/>
<path d="M5.44588 15.3524C5.1841 14.5809 5.03254 13.7542 5.03254 12.9C5.03254 12.0458 5.1841 11.2191 5.4321 10.4476L1.42276 7.33378C0.58232 9.01466 0.100098 10.9022 0.100098 12.9C0.100098 14.8978 0.58232 16.7853 1.42276 18.4662L5.44588 15.3524Z" fill="#FBBC05"/>
<path d="M12.4998 25.3C15.8478 25.3 18.6585 24.1978 20.7114 22.2964L16.7985 19.2653C15.7514 19.9956 14.3461 20.5053 12.4998 20.5053C9.22072 20.5053 6.43761 18.3422 5.44561 15.3524L1.43628 18.4662C3.47539 22.5169 7.65006 25.3 12.4998 25.3Z" fill="#34A853"/>
</svg>
